<?xml version="1.0" standalone="no"?><!DOCTYPE svg PUBLIC "-//W3C//DTD SVG 1.1//EN" "http://www.w3.org/Graphics/SVG/1.1/DTD/svg11.dtd"><svg t="1620378199278" class="icon" viewBox="0 0 1024 1024" version="1.1" xmlns="http://www.w3.org/2000/svg" p-id="7531" xmlns:xlink="http://www.w3.org/1999/xlink" width="200" height="200"><defs><style type="text/css"></style></defs><path d="M828.435441 287.114137 165.140643 287.114137c-63.453171 0-115.061572-51.621704-115.061572-115.061572 0-63.439868 51.608402-115.061572 115.061572-115.061572l663.294798 0c63.440891 0 115.061572 51.621704 115.061572 115.061572C943.498036 235.492432 891.876332 287.114137 828.435441 287.114137zM165.140643 111.137193c-33.590026 0-60.914348 27.324322-60.914348 60.915371 0 33.590026 27.324322 60.914348 60.914348 60.914348l663.294798 0c33.591049 0 60.915371-27.324322 60.915371-60.914348 0-33.591049-27.324322-60.915371-60.915371-60.915371L165.140643 111.137193z" p-id="7532"></path><path d="M828.435441 923.336346 165.140643 923.336346c-63.453171 0-115.061572-51.620681-115.061572-115.061572 0-63.438844 51.608402-115.060549 115.061572-115.060549l663.294798 0c63.440891 0 115.061572 51.621704 115.061572 115.060549C943.498036 871.715665 891.876332 923.336346 828.435441 923.336346zM165.140643 747.359402c-33.590026 0-60.914348 27.325345-60.914348 60.914348 0 33.591049 27.324322 60.915371 60.914348 60.915371l663.294798 0c33.591049 0 60.915371-27.324322 60.915371-60.915371 0-33.589003-27.324322-60.914348-60.915371-60.914348L165.140643 747.359402z" p-id="7533"></path><path d="M828.435441 611.993388 165.140643 611.993388c-63.453171 0-115.061572-51.620681-115.061572-115.061572 0-63.439868 51.608402-115.061572 115.061572-115.061572l663.294798 0c63.440891 0 115.061572 51.621704 115.061572 115.061572C943.498036 560.372707 891.876332 611.993388 828.435441 611.993388zM165.140643 436.017468c-33.590026 0-60.914348 27.324322-60.914348 60.914348 0 33.591049 27.324322 60.915371 60.914348 60.915371l663.294798 0c33.591049 0 60.915371-27.324322 60.915371-60.915371 0-33.590026-27.324322-60.914348-60.915371-60.914348L165.140643 436.017468z" p-id="7534"></path></svg>