<?xml version="1.0" standalone="no"?><!DOCTYPE svg PUBLIC "-//W3C//DTD SVG 1.1//EN" "http://www.w3.org/Graphics/SVG/1.1/DTD/svg11.dtd"><svg t="1620720546118" class="icon" viewBox="0 0 1024 1024" version="1.1" xmlns="http://www.w3.org/2000/svg" p-id="2367" xmlns:xlink="http://www.w3.org/1999/xlink" width="200" height="200"><defs><style type="text/css"></style></defs><path d="M869.38248216 404.74943589c3.31401797-13.9188755 5.30242877-28.50055458 5.30242878-43.08223367 0-39.10541211-12.5932683-76.22241343-34.46578694-109.36259319 13.2560719-42.41943008 41.75662649-145.81679091 20.54691143-212.09715042-69.59437748 68.26877029-171.00332752 82.18764578-208.12032886 84.83886016-44.40784087-13.2560719-93.4553069-20.54691145-144.49118372-20.54691145-51.69868042 0-100.74614645 7.29083955-145.1539873 21.20971504-33.80298335-1.98841078-139.18875497-13.9188755-211.43434684-84.83886016-22.53532223 70.91998467 10.60485751 180.94538145 22.53532225 216.07397198-19.88410785 31.15176897-31.81457257 66.9431631-31.81457257 104.06016443 0 17.89569707 2.65121438 34.46578693 7.29083954 51.03587682-95.44371769 265.78424162-65.61755591 438.77597993-24.52373301 536.20810841h78.8736278c-0.66280359-3.31401797-0.66280359-5.96523235-0.66280358-9.27925033 1.3256072 3.31401797 2.65121438 5.96523235 3.97682155 9.27925033h607.12809309c1.3256072-1.98841078 1.98841078-4.63962516 3.31401797-7.29083954 0 2.65121438-0.66280359 4.63962516-0.66280359 7.29083954h78.87362782c41.75662649-98.09493207 71.58278827-273.07508116-26.51214382-543.49894795z m-439.43878352 394.36813906c-22.53532223 0-41.0938229-29.16335819-41.09382289-64.95475232s18.55850066-64.95475232 41.09382289-64.95475232c11.26766112 0 21.87251863 7.29083955 29.16335819 19.22130427 7.29083955 11.93046471 11.93046471 27.83775099 11.93046472 45.73344805 0 35.79139413-18.55850066 64.95475232-41.09382291 64.95475232z m110.0253968 33.14017975c-22.53532223 0-41.0938229-29.16335819-41.09382291-64.9547523s18.55850066-64.95475232 41.09382291-64.95475232 41.0938229 29.16335819 41.09382288 64.95475232-18.55850066 64.95475232-41.09382288 64.9547523z m110.02539678-33.14017975c-22.53532223 0-41.0938229-29.16335819-41.09382291-64.95475232s18.55850066-64.95475232 41.09382291-64.95475232c11.26766112 0 21.87251863 7.29083955 29.16335818 19.22130427 7.29083955 11.93046471 11.93046471 27.83775099 11.9304647 45.73344805 0 35.79139413-18.55850066 64.95475232-41.09382288 64.95475232z m108.69978958-306.87806452c-1.98841078 1.98841078-3.97682157 3.97682157-5.96523237 5.30242877h-0.66280359C524.72461274 655.95199842 283.46410413 513.44922548 283.46410413 513.44922548c-5.96523235-2.65121438-11.93046471-5.30242877-17.89569706-9.27925034-19.22130427-11.26766112-35.12859054-28.50055458-47.72185883-48.38466243-15.90728628-26.51214381-25.84934021-58.98951997-25.84934022-94.11811049 0-88.81568174 60.97793075-161.0612736 135.21193339-161.0612736 66.2803595 0 121.2930579 56.33830558 133.2235226 131.23511181 2.65121438 21.87251863 5.96523235 41.0938229 8.61644675 57.66391277 28.50055458 163.04968438 54.34989479 68.93157389 66.94316311-1.98841078 5.30242877-29.82616178 8.61644674-55.67550198 8.61644671-55.67550199h1.3256072c11.93046471-74.89680624 66.9431631-131.23511182 133.22352262-131.23511181 74.89680624 0 135.21193339 72.24559186 135.21193338 161.0612736 1.3256072 53.6870912-21.20971504 101.40895005-55.67550198 130.57230821z" p-id="2368"></path><path d="M388.84987575 386.19093523c0 30.48896537-23.86092942 55.0126984-53.02428761 55.01269839-4.63962516 0-9.27925033-0.66280359-13.9188755-1.98841079-5.96523235-3.31401797-11.26766112-5.96523235-17.23289347-8.61644674-13.2560719-9.94205392-21.20971504-25.84934021-21.20971504-43.74503727 0-1.98841078 0-4.63962516 0.6628036-6.62803594 3.31401797-27.17494739 25.18653662-48.38466243 52.361484-48.38466245 13.2560719 0 24.52373301 4.63962516 33.80298336 12.59326831 1.3256072 1.3256072 2.65121438 1.98841078 3.31401797 3.31401798 9.27925033 9.94205392 15.24448269 23.86092942 15.24448269 38.44260851zM703.01877981 402.7610251h-72.90839545c-9.27925033 0-16.57008987-7.29083955-16.57008988-16.57008987s7.29083955-16.57008987 16.57008988-16.57008988h72.90839545c9.27925033 0 16.57008987 7.29083955 16.57008987 16.57008988s-7.95364315 16.57008987-16.57008987 16.57008987z" p-id="2369"></path></svg>